<mxfile host="app.diagrams.net" modified="2024-05-02T15:13:25.731Z" agent="Mozilla/5.0 (Windows NT 10.0; Win64; x64) AppleWebKit/537.36 (KHTML, like Gecko) Chrome/124.0.0.0 Safari/537.36" etag="xlMT0cjAU_kRJbWA0if3" version="24.2.5" type="device">
  <diagram name="第 1 页" id="keJFZ3plHrOy2_CsdfrY">
    <mxGraphModel dx="1206" dy="758" grid="1" gridSize="10" guides="1" tooltips="1" connect="1" arrows="1" fold="1" page="1" pageScale="1" pageWidth="1169" pageHeight="827" math="0" shadow="0">
      <root>
        <mxCell id="0" />
        <mxCell id="1" parent="0" />
        <mxCell id="zUK1adLD9XNwcWWyX19I-1" value="" style="rounded=0;whiteSpace=wrap;html=1;" vertex="1" parent="1">
          <mxGeometry x="100" y="360" width="920" height="60" as="geometry" />
        </mxCell>
        <mxCell id="zUK1adLD9XNwcWWyX19I-2" value="&lt;h2&gt;DATA+TCP header&lt;/h2&gt;" style="text;html=1;align=center;verticalAlign=middle;resizable=0;points=[];autosize=1;strokeColor=none;fillColor=none;" vertex="1" parent="1">
          <mxGeometry x="680" y="360" width="180" height="60" as="geometry" />
        </mxCell>
        <mxCell id="zUK1adLD9XNwcWWyX19I-3" value="" style="endArrow=none;html=1;rounded=0;exitX=0.465;exitY=1.038;exitDx=0;exitDy=0;exitPerimeter=0;entryX=0.457;entryY=0.013;entryDx=0;entryDy=0;entryPerimeter=0;" edge="1" parent="1">
          <mxGeometry width="50" height="50" relative="1" as="geometry">
            <mxPoint x="600" y="419.22" as="sourcePoint" />
            <mxPoint x="600.44" y="360" as="targetPoint" />
          </mxGeometry>
        </mxCell>
        <mxCell id="zUK1adLD9XNwcWWyX19I-4" value="" style="endArrow=none;html=1;rounded=0;exitX=0.465;exitY=1.038;exitDx=0;exitDy=0;exitPerimeter=0;entryX=0.457;entryY=0.013;entryDx=0;entryDy=0;entryPerimeter=0;" edge="1" parent="1">
          <mxGeometry width="50" height="50" relative="1" as="geometry">
            <mxPoint x="360" y="420" as="sourcePoint" />
            <mxPoint x="360" y="361" as="targetPoint" />
          </mxGeometry>
        </mxCell>
        <mxCell id="zUK1adLD9XNwcWWyX19I-5" value="&lt;h2 style=&quot;font-size: 16px;&quot;&gt;&lt;font style=&quot;font-size: 16px;&quot;&gt;IP Header+Wireguard Control&lt;/font&gt;&lt;/h2&gt;&lt;h2 style=&quot;font-size: 16px;&quot;&gt;&lt;font style=&quot;font-size: 16px;&quot;&gt;+UDP header&lt;/font&gt;&lt;/h2&gt;" style="text;html=1;align=center;verticalAlign=middle;resizable=0;points=[];autosize=1;strokeColor=none;fillColor=none;" vertex="1" parent="1">
          <mxGeometry x="350" y="345" width="250" height="90" as="geometry" />
        </mxCell>
        <mxCell id="zUK1adLD9XNwcWWyX19I-6" value="&lt;h2&gt;&lt;font style=&quot;font-size: 17px;&quot;&gt;UDP2RAW Control+TCP header&lt;/font&gt;&lt;/h2&gt;" style="text;html=1;align=center;verticalAlign=middle;resizable=0;points=[];autosize=1;strokeColor=none;fillColor=none;" vertex="1" parent="1">
          <mxGeometry x="90" y="360" width="280" height="60" as="geometry" />
        </mxCell>
        <mxCell id="zUK1adLD9XNwcWWyX19I-10" value="&lt;font style=&quot;font-size: 18px;&quot;&gt;Wireguard MTU=1295B,即WG0的MTU设置&lt;/font&gt;" style="shape=dimension;whiteSpace=wrap;html=1;align=center;points=[];verticalAlign=bottom;spacingBottom=3;labelBackgroundColor=none;" vertex="1" parent="1">
          <mxGeometry x="600" y="420" width="420" height="40" as="geometry" />
        </mxCell>
        <mxCell id="zUK1adLD9XNwcWWyX19I-12" value="&lt;font style=&quot;font-size: 18px;&quot;&gt;UDP2RAW MTU=1375B, 在本次配置中没有出现, 只是一个中间状态&lt;/font&gt;" style="shape=dimension;whiteSpace=wrap;html=1;align=center;points=[];verticalAlign=bottom;spacingBottom=3;labelBackgroundColor=none;" vertex="1" parent="1">
          <mxGeometry x="360" y="420" width="660" height="110" as="geometry" />
        </mxCell>
        <mxCell id="zUK1adLD9XNwcWWyX19I-14" value="&lt;div&gt;&lt;br&gt;&lt;/div&gt;" style="shape=dimension;direction=west;whiteSpace=wrap;html=1;align=center;points=[];verticalAlign=top;spacingTop=-15;labelBackgroundColor=none;" vertex="1" parent="1">
          <mxGeometry x="100" y="320" width="920" height="40" as="geometry" />
        </mxCell>
        <mxCell id="zUK1adLD9XNwcWWyX19I-17" value="&lt;div&gt;&lt;br&gt;&lt;/div&gt;&lt;div&gt;&lt;span style=&quot;font-size: 18px;&quot;&gt;真实的MTU=1500B, 即eth0的MTU配置&lt;/span&gt;&lt;div&gt;&lt;br style=&quot;text-wrap: wrap;&quot;&gt;&lt;/div&gt;&lt;/div&gt;" style="text;html=1;align=center;verticalAlign=middle;resizable=0;points=[];autosize=1;strokeColor=none;fillColor=none;" vertex="1" parent="1">
          <mxGeometry x="370" y="260" width="340" height="60" as="geometry" />
        </mxCell>
      </root>
    </mxGraphModel>
  </diagram>
</mxfile>
